<svg xmlns="http://www.w3.org/2000/svg" viewBox="0 0 28 28" width="28" height="28">
<path fill="currentColor" fill-rule="evenodd" d="M4.31 14.5a1.07 1.07 0 0 1 0-1.5L13 4.3c.42-.41 1.1-.41 1.52 0l.99 1c.42.42.41 1.11-.02 1.53l-5.38 5.12h12.83c.6 0 1.07.48 1.07 1.07v1.43c0 .6-.48 1.07-1.07 1.07H10.1l5.38 5.13c.44.41.45 1.1.02 1.53l-1 .99c-.41.42-1.1.42-1.5 0L4.3 14.5Zm7.97 9.38-8.67-8.67c-.81-.8-.82-2.12 0-2.93l8.68-8.67c.8-.81 2.12-.82 2.92 0l1 .99c.82.82.8 2.16-.04 2.96l-3.57 3.4h10.33c1.14 0 2.07.93 2.07 2.07v1.43c0 1.15-.93 2.07-2.07 2.07H12.6l3.57 3.4c.84.8.86 2.14.03 2.97l-.99.99c-.8.8-2.12.8-2.93 0Z"/>
</svg>
